<?xml version="1.0" standalone="no"?>
<!DOCTYPE svg PUBLIC "-//W3C//DTD SVG 20010904//EN"
 "http://www.w3.org/TR/2001/REC-SVG-20010904/DTD/svg10.dtd">
<svg version="1.0" xmlns="http://www.w3.org/2000/svg"
 width="1024.000000pt" height="715.000000pt" viewBox="0 0 1024.000000 715.000000"
 preserveAspectRatio="xMidYMid meet">

<g transform="translate(0.000000,715.000000) scale(0.100000,-0.100000)"
fill="#000000" stroke="none">
<path d="M3600 5115 c-35 -8 -138 -13 -283 -14 -158 -1 -235 -5 -250 -13 -14
-8 -85 -14 -192 -16 -93 -2 -174 -8 -180 -13 -5 -5 -70 -9 -145 -9 -103 -1
-140 -4 -154 -15 -15 -11 -48 -15 -122 -15 -71 0 -110 -5 -130 -15 -18 -9 -57
-15 -106 -15 -42 0 -80 -4 -83 -10 -3 -5 -26 -10 -51 -10 -25 0 -61 -7 -81
-15 -19 -8 -56 -15 -82 -15 -25 0 -55 -7 -65 -15 -12 -9 -42 -15 -72 -15 -29
0 -56 -4 -59 -10 -3 -5 -31 -10 -62 -10 -54 0 -57 -1 -102 -51 -25 -29 -94
-100 -154 -159 -59 -60 -107 -113 -107 -119 0 -5 -29 -40 -65 -77 -35 -37 -67
-74 -70 -83 -3 -9 -34 -46 -70 -83 -36 -36 -65 -73 -65 -81 0 -15 -67 -77 -82
-77 -5 0 -17 -9 -28 -20 -25 -25 -28 -105 -5 -114 19 -7 19 -40 0 -56 -11 -9
-15 -32 -15 -80 0 -48 4 -71 15 -80 19 -16 19 -54 0 -70 -8 -7 -15 -28 -15
-47 0 -19 -7 -42 -16 -50 -16 -17 -12 -78 7 -98 14 -14 11 -55 -5 -55 -7 0
-19 -7 -26 -15 -7 -8 -29 -15 -49 -15 -53 0 -101 -50 -101 -106 0 -22 7 -49
15 -60 9 -12 14 -42 15 -82 0 -60 2 -63 40 -98 l40 -36 0 -141 c0 -118 3 -143
17 -159 16 -18 16 -21 -1 -52 -25 -46 -19 -120 10 -124 12 -2 26 -14 32 -28
11 -23 15 -24 120 -24 105 0 110 -1 128 -25 l19 -25 340 0 340 0 23 -24 c12
-13 22 -30 22 -38 0 -18 28 -76 41 -83 5 -4 9 -13 9 -21 0 -8 11 -25 25 -38
14 -13 25 -30 25 -38 0 -15 92 -108 107 -108 5 0 23 -13 41 -30 18 -17 42 -30
53 -30 10 0 19 -4 19 -10 0 -5 9 -10 19 -10 11 0 26 -6 33 -13 36 -36 80 -42
293 -42 209 0 210 0 263 28 30 15 60 27 67 27 7 0 23 11 36 25 13 13 31 25 39
25 22 0 190 172 190 193 0 10 7 20 15 23 8 4 15 17 15 30 0 13 5 24 10 24 6 0
10 11 10 24 0 41 26 57 84 54 l51 -3 3 -37 3 -38 622 -2 c713 -2 653 -1 1112
-13 193 -5 823 -10 1400 -10 l1050 0 3 53 c3 52 3 52 36 52 34 0 84 -40 72
-58 -3 -5 1 -15 9 -22 8 -7 15 -20 15 -30 0 -9 14 -27 30 -40 17 -13 29 -29
28 -36 -4 -19 140 -164 163 -164 10 0 19 -4 19 -9 0 -5 39 -29 88 -53 l87 -43
221 -3 c191 -3 222 -2 233 12 8 9 19 16 26 16 7 0 18 7 25 15 7 8 21 15 31 15
11 0 19 5 19 10 0 6 7 10 15 10 17 0 121 75 163 117 15 15 38 45 51 65 12 21
27 38 32 38 5 0 9 11 9 25 0 14 4 25 8 25 7 0 30 45 45 93 5 11 17 17 39 17
37 0 50 -7 65 -33 9 -17 30 -18 283 -18 177 0 277 4 283 10 6 6 17 11 24 11
17 0 113 93 113 109 0 6 7 23 16 36 17 26 12 45 -11 45 -12 0 -13 10 -8 48 3
26 10 49 15 50 4 2 8 20 8 40 0 38 39 90 58 78 5 -3 19 5 30 17 19 20 21 35
23 160 1 146 -4 167 -45 167 -11 0 -32 12 -46 26 -24 25 -24 27 -7 56 13 23
17 55 17 147 0 108 -2 122 -26 167 -31 58 -62 94 -82 94 -8 0 -25 11 -38 25
-13 14 -32 25 -42 25 -11 0 -22 7 -26 15 -3 8 -14 15 -24 15 -11 0 -25 7 -32
15 -7 9 -19 14 -26 11 -8 -3 -20 1 -28 9 -8 8 -26 15 -39 15 -14 0 -30 7 -37
15 -7 8 -27 15 -45 15 -20 0 -35 6 -39 15 -4 10 -20 15 -50 15 -25 0 -48 4
-51 10 -3 5 -23 10 -44 10 -22 0 -44 6 -51 15 -7 9 -30 15 -54 15 -22 0 -50 7
-60 15 -11 8 -40 15 -65 15 -25 0 -54 7 -64 15 -12 8 -31 11 -53 8 -22 -4 -42
0 -58 11 -16 10 -47 16 -84 16 -33 0 -63 5 -70 12 -13 13 -70 21 -239 36 -45
4 -88 13 -95 20 -7 7 -41 12 -91 12 -44 0 -88 5 -100 12 -12 7 -67 16 -122 20
-55 4 -154 11 -220 16 -66 5 -133 14 -148 21 -43 17 -287 14 -311 -4 -11 -8
-37 -15 -58 -15 -40 0 -118 33 -118 50 0 6 -7 10 -15 10 -9 0 -28 11 -43 25
-15 14 -31 25 -35 25 -5 0 -26 14 -47 30 -21 17 -45 30 -54 30 -9 0 -16 4 -16
9 0 5 -11 12 -24 15 -13 3 -34 17 -47 31 -13 13 -29 25 -36 25 -13 0 -77 39
-105 64 -10 9 -27 16 -38 16 -11 0 -20 5 -20 10 0 6 -8 10 -19 10 -10 0 -24 7
-31 15 -16 19 -98 65 -117 65 -7 0 -16 7 -19 15 -4 8 -14 15 -24 15 -10 0 -23
6 -29 14 -6 7 -40 28 -76 45 -36 18 -65 36 -65 42 0 5 -11 9 -24 9 -13 0 -27
7 -30 16 -3 9 -13 14 -20 11 -8 -3 -20 1 -26 9 -7 8 -18 14 -25 14 -7 0 -18 7
-25 15 -7 8 -23 15 -35 15 -13 0 -25 7 -29 15 -3 8 -14 15 -25 15 -11 0 -23 5
-26 10 -3 6 -15 10 -26 10 -11 0 -22 7 -25 15 -4 8 -16 15 -29 15 -13 0 -25 7
-29 15 -3 8 -12 15 -21 15 -8 0 -33 11 -55 25 -22 14 -48 25 -57 25 -10 0 -27
7 -37 15 -11 8 -32 15 -47 15 -15 0 -31 5 -34 10 -3 6 -25 10 -49 10 -23 0
-51 7 -62 15 -11 8 -41 14 -72 15 -29 0 -63 6 -75 12 -24 14 -120 25 -307 36
-69 4 -135 13 -147 20 -15 8 -83 12 -225 12 -119 1 -246 7 -308 15 -132 18
-511 18 -590 0z m427 -57 c13 -12 23 -25 23 -30 0 -4 -197 -8 -439 -8 -364 0
-446 -3 -481 -15 -32 -11 -88 -15 -221 -15 -108 0 -180 -4 -184 -10 -4 -6 -62
-10 -140 -10 -105 0 -137 -3 -149 -15 -11 -11 -38 -15 -109 -15 -61 0 -107 -5
-130 -15 -22 -9 -67 -15 -112 -15 -43 0 -75 -4 -75 -10 0 -5 -25 -10 -55 -10
-30 0 -55 5 -55 10 0 9 14 14 33 11 4 -1 21 6 37 14 18 9 57 15 102 15 44 1
83 6 98 15 17 9 56 14 118 15 51 0 103 5 115 11 13 7 66 11 139 10 89 -1 125
2 147 14 23 11 65 15 178 15 81 0 166 6 188 12 22 6 173 15 335 20 266 7 598
22 609 26 3 1 15 -8 28 -20z m916 -55 c-7 -2 -19 -2 -25 0 -7 3 -2 5 12 5 14
0 19 -2 13 -5z m-478 -23 c4 -6 63 -10 143 -10 100 -1 144 -5 162 -15 16 -9
55 -14 111 -15 54 0 100 -6 122 -15 20 -8 61 -15 92 -15 30 0 55 -4 55 -10 0
-5 22 -10 48 -10 27 0 57 -6 68 -15 10 -8 35 -15 54 -15 19 0 46 -7 60 -15 14
-8 40 -14 58 -15 17 0 32 -4 32 -10 0 -5 11 -10 24 -10 14 0 32 -12 46 -30 14
-18 32 -30 46 -30 13 0 24 -4 24 -10 0 -5 8 -10 18 -10 10 0 29 -13 42 -30 14
-16 35 -29 48 -30 12 0 22 -4 22 -10 0 -5 11 -12 25 -16 27 -7 34 -24 11 -24
-21 0 -77 32 -103 58 -12 12 -31 22 -43 22 -11 0 -20 5 -20 10 0 6 -8 10 -19
10 -10 0 -24 7 -31 15 -7 8 -20 15 -29 15 -10 0 -26 7 -37 15 -10 8 -29 15
-40 15 -12 0 -27 7 -34 15 -7 8 -25 15 -41 15 -15 0 -31 5 -34 10 -3 6 -23 10
-44 10 -20 0 -46 7 -57 15 -10 8 -35 15 -55 15 -20 0 -53 7 -72 15 -20 8 -63
15 -95 15 -32 0 -62 4 -67 9 -6 5 -60 11 -121 13 -71 2 -117 8 -127 16 -22 19
-1291 19 -1314 1 -9 -8 -59 -14 -136 -17 -67 -2 -126 -8 -132 -13 -5 -5 -43
-9 -85 -9 -52 0 -82 -5 -96 -15 -12 -9 -43 -15 -84 -15 -41 0 -72 -6 -84 -15
-11 -8 -41 -15 -67 -15 -26 0 -51 -4 -54 -10 -3 -5 -25 -10 -49 -10 -23 0 -51
-7 -62 -15 -10 -8 -31 -15 -46 -15 -14 0 -41 -8 -60 -17 -60 -30 -68 -33 -82
-33 -7 0 -19 -7 -26 -15 -7 -8 -18 -15 -26 -15 -20 0 -104 -87 -104 -108 0
-10 -7 -27 -15 -38 -19 -25 -19 -78 0 -94 8 -7 15 -23 15 -36 0 -14 6 -34 12
-47 41 -74 75 -126 102 -154 l30 -33 393 0 c341 0 394 -2 399 -15 5 -13 61
-15 420 -15 228 0 414 -3 414 -8 0 -4 -34 -40 -75 -80 l-74 -72 -326 0 c-280
0 -326 2 -331 15 -5 13 -106 15 -820 15 -717 0 -814 -2 -814 -15 0 -13 97 -15
814 -15 711 0 815 -2 820 -15 4 -13 54 -15 338 -17 l333 -3 -3 -41 c-2 -28 2
-45 12 -53 9 -8 16 -28 16 -46 0 -20 6 -35 15 -39 10 -4 15 -20 15 -51 0 -29
6 -52 16 -62 12 -12 14 -27 10 -55 -5 -29 -3 -40 9 -44 11 -5 15 -22 15 -69 0
-47 4 -64 15 -69 11 -4 15 -20 15 -55 0 -35 4 -51 15 -55 12 -4 15 -18 14 -53
-2 -29 2 -48 9 -51 8 -2 12 -27 12 -67 0 -47 4 -64 15 -69 11 -4 15 -20 15
-55 0 -34 4 -51 15 -55 17 -6 21 -42 5 -48 -5 -1 -65 1 -132 5 -68 5 -236 10
-374 13 l-251 5 -38 39 c-22 22 -44 40 -50 40 -16 1 -55 37 -55 52 0 8 -12 25
-26 39 -14 13 -35 39 -47 59 -25 41 -181 200 -196 200 -6 0 -26 14 -44 30 -19
17 -42 30 -51 30 -9 0 -16 5 -16 10 0 6 -8 10 -19 10 -10 0 -24 7 -31 15 -7 8
-23 15 -35 15 -12 0 -28 7 -35 15 -7 8 -27 15 -46 15 -18 0 -36 5 -39 10 -3 6
-29 10 -56 10 -27 0 -66 7 -86 15 -42 18 -164 20 -180 4 -6 -6 -44 -14 -83
-17 -39 -2 -73 -9 -76 -13 -3 -5 -22 -9 -43 -9 -22 0 -44 -6 -51 -15 -7 -8
-20 -15 -30 -15 -10 0 -23 -7 -30 -15 -7 -8 -21 -15 -31 -15 -11 0 -19 -4 -19
-10 0 -5 -8 -10 -17 -10 -9 0 -25 -7 -35 -16 -15 -14 -20 -15 -34 -3 -10 8
-49 17 -88 21 -153 15 -229 27 -239 37 -6 6 -34 11 -62 11 -48 0 -55 3 -91 43
-41 43 -74 99 -74 124 0 7 -7 16 -15 19 -23 9 -19 54 5 54 11 0 37 17 58 38
20 20 58 53 82 72 53 41 79 70 80 88 0 7 7 15 15 18 10 4 15 20 15 51 0 34 -6
49 -25 67 -14 13 -25 30 -25 37 0 8 -25 39 -55 69 -30 30 -54 62 -55 71 0 9
43 59 96 110 53 52 107 110 120 129 29 45 320 341 356 363 17 11 48 17 82 17
29 0 67 7 82 15 19 10 58 15 112 15 48 0 82 4 82 10 0 6 42 10 105 10 71 0
117 5 142 15 25 11 72 15 163 15 91 0 138 4 163 15 28 12 84 15 244 16 114 1
219 5 233 9 38 12 1138 12 1145 0z m829 -25 c11 -8 41 -15 67 -15 29 0 51 -6
59 -15 7 -8 23 -15 37 -15 26 0 73 -27 73 -41 0 -16 -96 -10 -110 6 -7 9 -29
15 -54 15 -23 0 -46 4 -51 9 -6 5 -30 11 -55 14 -25 2 -61 10 -80 17 -19 7
-41 15 -48 16 -7 2 -10 8 -7 14 10 16 147 12 169 -5z m-3424 -70 c0 -23 -3
-25 -49 -25 -34 0 -51 -4 -55 -15 -4 -11 -20 -15 -56 -15 -27 0 -50 -4 -50 -9
0 -13 -112 -23 -124 -11 -21 21 33 49 94 50 32 0 63 7 74 15 11 8 41 15 67 15
26 0 51 5 54 10 3 6 15 10 26 10 14 0 19 -7 19 -25z m2470 16 c0 -12 -207 -17
-567 -13 -168 2 -273 6 -273 12 0 6 156 10 420 10 258 0 420 -4 420 -9z m120
0 c0 -5 -6 -11 -12 -14 -20 -7 -78 4 -72 14 7 12 84 12 84 0z m289 -9 c101 -5
146 -11 149 -19 2 -9 29 -13 88 -13 66 0 86 -3 90 -15 5 -11 22 -15 70 -15 36
0 64 -4 64 -10 0 -5 20 -10 44 -10 26 0 48 -6 56 -15 7 -8 27 -15 45 -15 20 0
35 -6 39 -15 3 -8 18 -15 32 -15 31 0 104 -30 104 -42 0 -4 8 -8 19 -8 10 0
24 -7 31 -15 7 -8 20 -15 30 -15 10 0 23 -7 30 -15 7 -8 19 -15 28 -15 8 0 25
-11 38 -25 13 -14 32 -25 44 -25 11 0 20 -4 20 -10 0 -5 11 -12 25 -16 14 -3
34 -17 44 -30 10 -13 26 -24 35 -24 19 0 61 -39 52 -48 -4 -3 -12 0 -18 6 -7
7 -20 12 -30 12 -10 0 -21 7 -24 15 -4 8 -17 15 -30 15 -13 0 -24 4 -24 10 0
5 -16 16 -35 25 -19 9 -39 23 -46 31 -6 8 -19 14 -29 14 -10 0 -23 7 -30 15
-7 8 -16 15 -21 15 -5 0 -27 11 -49 25 -22 14 -48 25 -59 25 -10 0 -24 7 -31
15 -7 8 -21 15 -30 15 -10 0 -20 5 -22 10 -2 6 -14 12 -28 15 -14 2 -34 9 -45
13 -41 18 -91 34 -120 40 -16 2 -39 11 -50 18 -11 8 -43 14 -72 14 -29 0 -53
5 -53 10 0 6 -33 10 -78 10 -53 0 -84 5 -98 15 -15 11 -54 14 -174 15 -90 0
-160 4 -166 10 -5 5 -25 12 -44 14 -19 2 -39 4 -43 5 -5 0 -5 6 -1 12 4 7 28
9 68 5 33 -4 126 -10 205 -14z m-1301 -9 c50 -13 -6 -23 -131 -23 -101 0 -132
-3 -143 -15 -11 -11 -38 -15 -103 -15 -48 0 -91 -4 -96 -9 -6 -5 -37 -11 -70
-14 -32 -3 -61 -10 -63 -16 -2 -6 -30 -11 -68 -11 -50 0 -64 -3 -64 -15 0 -21
175 -22 187 -1 5 9 32 16 68 20 175 15 269 28 285 36 11 6 67 10 125 10 93 0
107 2 111 18 4 15 16 16 107 12 l102 -5 3 -74 c2 -44 9 -82 17 -95 9 -12 15
-45 15 -83 0 -35 4 -63 10 -63 6 0 10 -26 10 -59 0 -40 5 -65 15 -75 10 -10
15 -36 15 -84 0 -50 4 -73 15 -82 8 -7 15 -21 15 -32 0 -20 -5 -20 -237 -14
-287 8 -282 8 -362 0 -53 -5 -66 -3 -73 10 -8 14 -44 16 -298 16 l-289 0 -20
26 c-27 34 -26 44 1 44 12 0 32 10 45 22 21 19 23 30 23 110 0 77 -3 93 -25
128 -24 38 -28 40 -75 40 -27 0 -52 -4 -55 -10 -3 -5 -14 -10 -23 -10 -22 -1
-92 -63 -92 -82 0 -18 -34 -51 -43 -41 -4 3 -7 29 -7 57 0 46 4 55 34 84 19
18 41 32 50 32 8 0 18 5 21 10 3 6 15 10 26 10 11 0 22 7 25 15 4 9 19 15 39
15 18 0 38 7 45 15 8 10 30 15 61 15 27 0 49 4 49 9 0 5 10 11 22 13 12 2 23
9 26 16 5 15 -74 17 -83 2 -3 -5 -21 -10 -38 -10 -18 0 -45 -7 -61 -15 -15 -8
-39 -15 -52 -15 -14 0 -27 -7 -30 -15 -4 -8 -16 -15 -29 -15 -13 0 -25 -7 -29
-15 -3 -8 -13 -15 -23 -15 -10 0 -33 -14 -50 -30 -31 -28 -33 -34 -33 -99 0
-49 4 -72 15 -81 8 -7 15 -18 15 -25 0 -20 32 -79 55 -100 20 -19 49 -74 43
-81 -8 -8 -71 52 -88 84 -11 21 -24 44 -29 52 -28 45 -41 95 -41 150 0 60 1
63 47 111 26 27 55 49 65 49 10 0 21 7 24 15 4 8 16 15 29 15 13 0 25 7 29 15
3 9 18 15 35 15 16 0 33 5 36 10 3 6 23 10 45 10 24 0 40 5 44 15 4 10 20 15
53 15 26 1 59 7 73 15 14 8 44 14 67 15 23 0 45 5 48 10 3 6 42 10 86 10 64 0
79 3 79 15 0 12 17 15 89 15 59 0 98 5 117 15 30 15 214 21 262 8z m385 -73
c5 -25 13 -49 18 -54 5 -6 9 -29 9 -52 0 -25 6 -47 15 -54 9 -7 15 -29 15 -52
0 -21 6 -49 14 -61 7 -12 14 -37 14 -56 1 -18 6 -39 11 -44 6 -6 11 -31 11
-56 0 -26 7 -55 15 -65 8 -11 15 -37 15 -58 0 -21 5 -38 10 -38 6 0 10 -7 10
-15 0 -12 -15 -15 -75 -15 l-75 0 0 38 c0 21 -7 47 -15 58 -9 11 -15 43 -15
79 0 36 -6 68 -15 79 -10 13 -15 43 -15 82 0 35 -4 66 -10 69 -5 3 -10 30 -10
58 -1 29 -7 63 -15 77 -8 14 -14 49 -15 78 l0 53 47 -3 47 -3 9 -45z m121 34
c9 -8 16 -27 16 -42 0 -15 7 -36 15 -46 8 -11 15 -30 15 -42 0 -13 5 -26 10
-29 6 -3 10 -19 10 -34 0 -15 7 -36 15 -47 8 -10 15 -33 15 -50 0 -17 7 -37
15 -44 8 -7 15 -25 15 -41 0 -15 5 -31 10 -34 6 -3 10 -15 10 -26 0 -10 14
-31 30 -46 20 -17 30 -36 30 -54 0 -15 5 -31 10 -34 6 -3 10 -22 10 -41 0 -22
6 -37 15 -40 8 -4 15 -12 15 -20 0 -11 -17 -14 -72 -14 -64 0 -76 3 -95 24
-13 13 -23 33 -23 44 0 12 -4 24 -10 27 -5 3 -10 23 -10 44 0 20 -7 46 -15 57
-8 10 -15 37 -15 59 0 22 -7 49 -15 59 -8 11 -15 41 -15 67 0 26 -4 51 -10 54
-5 3 -10 26 -10 51 0 30 -5 46 -15 50 -10 4 -15 20 -15 49 0 26 -6 47 -15 55
-16 13 -20 42 -8 53 12 13 72 7 87 -9z m72 1 c8 -19 44 -19 70 0 29 22 221 21
246 -2 17 -15 19 -15 33 3 14 17 16 17 25 3 8 -14 37 -17 206 -18 109 -1 205
-6 215 -11 9 -6 63 -13 118 -16 56 -4 104 -11 107 -16 3 -4 29 -8 59 -8 34 0
59 -5 69 -15 8 -8 29 -15 46 -15 17 0 38 -7 46 -15 9 -8 25 -15 37 -15 22 0
93 -23 125 -39 9 -5 24 -12 32 -15 8 -3 22 -10 30 -15 8 -5 29 -14 45 -21 17
-7 37 -16 45 -21 8 -5 35 -18 59 -30 25 -12 51 -27 58 -35 8 -8 20 -14 27 -14
7 0 21 -8 32 -18 19 -18 32 -26 112 -67 20 -11 32 -25 32 -38 0 -26 -28 -57
-52 -57 -11 0 -23 -11 -28 -25 -8 -22 -13 -24 -29 -15 -26 14 -74 13 -89 -2
-7 -7 -12 -22 -12 -34 0 -12 -7 -27 -15 -34 -8 -7 -15 -21 -15 -32 0 -11 -9
-32 -19 -47 l-20 -27 -288 3 c-159 3 -292 8 -298 14 -12 12 -172 12 -180 -1
-3 -5 -28 -10 -56 -10 -27 0 -49 5 -49 10 0 6 -90 10 -249 10 l-249 0 -21 36
c-12 19 -21 50 -21 69 0 19 -4 37 -10 40 -5 3 -10 16 -10 29 0 12 -13 35 -30
51 -20 19 -30 39 -30 58 0 15 -7 35 -15 43 -8 9 -15 26 -15 39 0 13 -4 27 -10
30 -5 3 -10 19 -10 34 0 15 -7 36 -15 47 -8 10 -15 33 -15 50 0 17 -7 37 -15
44 -8 7 -15 25 -15 41 0 15 -4 31 -10 34 -13 8 -13 55 0 55 6 0 13 -7 16 -15z
m1584 7 c0 -10 -38 -42 -50 -42 -14 0 -12 7 8 29 17 20 42 27 42 13z m-3790
-32 c0 -5 -5 -10 -10 -10 -6 0 -13 -8 -17 -17 -9 -26 -75 -93 -91 -93 -20 0
-92 53 -92 68 0 7 14 12 36 12 19 0 44 5 56 11 11 6 36 13 56 15 21 3 39 9 40
14 5 13 22 13 22 0z m3900 -25 c9 -8 24 -15 33 -15 9 0 17 -4 17 -9 0 -5 10
-13 23 -16 40 -12 91 -37 124 -61 17 -13 38 -24 46 -24 8 0 20 -7 27 -15 7 -8
21 -15 31 -15 11 0 19 -4 19 -10 0 -5 8 -10 19 -10 10 0 24 -7 31 -15 7 -8 20
-15 30 -15 10 0 23 -6 29 -14 7 -8 27 -22 46 -31 19 -9 35 -20 35 -25 0 -6 11
-10 24 -10 13 0 26 -7 30 -15 3 -8 13 -15 21 -15 9 0 31 -11 49 -25 18 -14 38
-25 43 -25 6 0 13 -7 17 -15 3 -8 17 -15 31 -15 14 0 25 -4 25 -10 0 -5 11
-12 25 -16 14 -3 25 -9 25 -13 0 -3 13 -12 29 -19 16 -7 39 -22 51 -32 13 -11
29 -20 35 -20 7 0 23 -11 36 -25 13 -13 31 -25 40 -25 9 0 22 -7 29 -15 7 -8
19 -15 28 -15 8 0 25 -11 38 -25 13 -14 28 -25 34 -25 15 0 60 -31 60 -41 0
-5 -13 -9 -30 -9 -16 0 -55 -7 -86 -15 -51 -13 -60 -13 -81 0 -12 8 -34 15
-48 15 -15 0 -64 27 -120 65 -52 36 -98 65 -103 65 -5 0 -19 14 -32 30 -13 17
-31 30 -40 30 -9 0 -27 11 -40 25 -13 14 -27 25 -32 25 -12 0 -132 82 -141 97
-4 7 -16 13 -26 13 -10 0 -28 11 -41 25 -13 14 -31 25 -40 25 -9 0 -29 13 -45
30 -15 16 -32 27 -36 24 -4 -2 -22 9 -39 26 -17 16 -40 30 -50 30 -11 0 -20 4
-20 10 0 5 -16 16 -35 25 -19 9 -39 23 -46 31 -6 8 -20 14 -29 14 -10 0 -27
11 -38 25 -11 14 -27 25 -36 25 -9 0 -26 10 -38 22 -21 21 -21 21 -2 35 22 16
69 10 94 -12z m-4163 -72 c40 -29 80 -53 88 -53 23 0 18 -23 -12 -52 -53 -50
-83 -83 -83 -90 0 -4 -49 -57 -110 -117 -60 -61 -110 -116 -110 -123 0 -17
-51 -48 -79 -48 -12 0 -21 -4 -21 -10 0 -5 -15 -10 -33 -10 -18 0 -42 -7 -53
-15 -14 -11 -48 -14 -131 -15 -62 0 -113 2 -113 4 0 29 15 35 70 29 38 -4 60
-2 64 6 4 6 16 11 27 11 12 0 56 36 107 86 48 47 106 100 130 117 23 17 42 36
42 44 0 7 25 37 55 67 30 29 55 60 55 69 0 10 5 17 10 17 6 0 10 17 10 38 0
38 -25 72 -53 72 -25 0 -27 14 -5 37 25 27 20 29 145 -64z m-139 -12 c33 -28
27 -49 -30 -112 -29 -31 -66 -75 -83 -96 -16 -22 -46 -52 -66 -66 -20 -15 -70
-58 -112 -97 -70 -66 -78 -70 -121 -70 -45 0 -59 11 -32 27 7 4 24 26 38 48
14 22 44 58 67 80 24 22 63 66 87 98 25 31 77 91 116 132 75 80 98 89 136 56z
m4408 -106 c4 -8 13 -15 21 -15 8 0 29 -11 47 -25 18 -14 38 -25 44 -25 6 0
15 -6 19 -12 4 -7 24 -22 43 -32 19 -11 37 -22 40 -25 8 -10 93 -65 123 -80
15 -7 38 -27 52 -42 13 -16 31 -29 40 -29 9 0 28 -11 43 -25 15 -14 32 -25 38
-25 5 0 23 -13 39 -30 16 -16 35 -30 43 -30 8 0 25 -11 38 -25 13 -14 29 -25
36 -25 7 0 28 -14 46 -30 19 -16 47 -35 63 -42 33 -15 33 -31 0 -36 -40 -6
-66 6 -122 58 -29 27 -59 50 -65 50 -6 0 -26 16 -45 35 -19 20 -52 46 -74 59
-22 13 -49 33 -59 45 -11 12 -26 21 -35 21 -9 0 -33 18 -54 40 -20 22 -45 40
-55 40 -9 1 -28 14 -42 30 -13 17 -30 30 -37 30 -12 0 -44 23 -85 63 -10 9
-25 17 -33 17 -8 0 -15 4 -15 9 0 5 -11 12 -25 15 -14 4 -25 11 -25 16 0 6 -7
10 -15 10 -8 0 -15 7 -15 15 0 8 5 15 10 15 6 0 13 -7 16 -15z m-3273 -105
c15 -62 15 -111 1 -146 l-14 -34 -82 0 c-70 0 -85 3 -105 22 -27 25 -31 79 -8
98 8 7 15 17 15 23 0 6 15 26 32 44 31 32 36 34 92 31 60 -3 60 -3 69 -38z
m3419 -62 c-9 -9 -15 -9 -24 0 -9 9 -7 12 12 12 19 0 21 -3 12 -12z m38 -23
c0 -9 9 -15 24 -15 29 0 102 -65 85 -76 -7 -4 -17 0 -23 8 -6 8 -35 30 -64 47
-52 33 -65 51 -37 51 8 0 15 -7 15 -15z m-50 -25 c0 -5 -7 -10 -15 -10 -8 0
-15 5 -15 10 0 6 7 10 15 10 8 0 15 -4 15 -10z m36 -55 c10 -8 28 -15 38 -15
21 0 56 -27 56 -43 0 -9 -28 -6 -115 12 -40 9 -52 9 -63 -3 -8 -8 -12 -22 -9
-30 5 -13 27 -16 137 -16 l130 0 0 -37 c0 -31 -6 -42 -30 -58 -16 -11 -30 -23
-30 -27 0 -5 -52 -8 -115 -8 l-115 0 -30 42 c-33 46 -37 69 -15 88 8 7 15 20
15 29 0 9 8 23 18 31 61 53 93 61 128 35z m205 -55 c22 -22 46 -40 54 -40 8 0
15 -4 15 -10 0 -5 -9 -10 -20 -10 -11 0 -20 5 -20 10 0 6 -5 10 -11 10 -11 0
-69 60 -69 72 0 16 13 7 51 -32z m-3766 0 c3 -5 17 -10 31 -10 19 0 24 -5 24
-25 0 -42 -48 -27 -89 28 -12 15 -11 17 7 17 12 0 24 -4 27 -10z m3335 -9 c0
-10 -7 -24 -15 -31 -8 -7 -15 -20 -15 -30 0 -23 -29 -80 -41 -80 -15 0 -10 76
6 90 8 7 15 25 15 41 0 24 4 29 25 29 18 0 25 -5 25 -19z m-4446 -57 c9 -3 16
-15 16 -25 0 -10 18 -36 40 -56 22 -21 40 -44 40 -51 0 -7 11 -25 25 -40 14
-15 25 -29 25 -32 0 -25 -79 -140 -97 -140 -4 0 -19 -11 -33 -25 -35 -35 -109
-94 -134 -107 -12 -6 -24 -15 -27 -20 -3 -5 -16 -11 -30 -13 -13 -3 -25 -9
-27 -15 -2 -5 -14 -10 -26 -10 -12 0 -31 -7 -42 -15 -10 -8 -36 -15 -57 -15
-21 0 -48 -7 -61 -15 -44 -29 -73 6 -41 49 8 11 15 39 15 62 0 23 6 46 13 53
8 6 76 12 172 13 l158 3 18 34 c10 19 23 39 29 45 5 5 10 41 10 79 0 69 -1 70
-42 112 -24 23 -52 44 -63 46 -14 3 -20 12 -20 29 0 21 5 26 33 28 18 2 45 10
60 18 32 16 27 15 46 8z m4992 -16 c25 -24 30 -38 14 -38 -13 0 -50 37 -50 50
0 16 10 12 36 -12z m-32 -46 c90 -61 94 -74 25 -70 -45 2 -54 6 -57 23 -2 11
-15 32 -29 47 -14 14 -22 31 -19 37 9 14 0 18 80 -37z m-484 -19 c0 -29 -21
-30 -38 -2 -11 18 -11 23 5 34 21 15 33 4 33 -32z m-4820 20 c0 -5 -7 -16 -14
-25 -10 -14 -28 -18 -85 -18 -41 0 -71 4 -71 10 0 6 6 10 14 10 7 0 19 7 26
15 13 16 130 22 130 8z m155 -23 c8 0 15 -4 15 -10 0 -5 8 -10 18 -10 16 -1
98 -68 90 -75 -2 -2 -73 -5 -158 -6 -149 -4 -155 -3 -157 16 -2 14 16 34 59
67 59 46 61 47 89 33 15 -8 35 -15 44 -15z m2919 15 c5 -13 53 -15 351 -15
223 0 345 -4 345 -10 0 -6 123 -10 348 -10 191 0 374 -5 407 -10 33 -6 107
-13 165 -16 68 -3 110 -10 120 -19 11 -10 77 -15 280 -19 360 -8 463 -15 475
-29 6 -7 27 -21 48 -32 20 -11 37 -22 37 -25 0 -4 18 -14 41 -24 70 -31 45
-41 -113 -44 -120 -2 -149 0 -161 13 -13 13 -65 15 -360 15 -297 0 -346 2
-351 15 -5 13 -53 15 -350 15 -232 0 -345 3 -348 11 -2 7 -115 10 -345 9 -294
0 -343 2 -350 15 -7 12 -44 15 -218 17 -133 2 -209 7 -208 13 1 6 11 11 21 13
10 2 47 32 82 67 36 36 67 65 71 65 4 0 9 -7 13 -15z m2345 -10 c13 -14 27
-25 32 -25 5 0 9 -7 9 -15 0 -23 -15 -18 -40 15 -13 17 -29 30 -36 30 -8 0
-14 5 -14 10 0 18 24 10 49 -15z m-194 -30 c0 -14 -8 -21 -27 -23 -30 -4 -36
10 -15 33 17 20 42 14 42 -10z m1185 -10 c10 -12 37 -15 125 -15 76 0 124 -5
147 -15 22 -8 68 -14 118 -14 46 0 88 -5 93 -10 6 -6 47 -11 92 -11 56 0 87
-5 101 -15 13 -10 44 -14 95 -15 59 0 78 -4 83 -15 4 -12 23 -15 85 -15 44 0
83 -4 86 -10 3 -5 33 -10 65 -10 39 0 64 -5 74 -15 10 -10 35 -15 74 -15 41 0
63 -5 72 -15 8 -10 30 -15 61 -15 27 0 49 -4 49 -9 0 -6 21 -11 47 -13 66 -4
70 -28 5 -28 -29 0 -52 5 -54 12 -2 6 -30 13 -61 16 -32 2 -60 8 -63 13 -3 5
-31 9 -63 9 -35 0 -65 6 -77 15 -11 8 -42 14 -75 15 -31 0 -70 7 -85 15 -17 8
-56 15 -91 15 -34 0 -65 5 -68 10 -3 6 -41 10 -83 10 -49 0 -88 6 -106 15 -17
9 -56 15 -101 15 -42 0 -88 6 -108 15 -23 10 -69 15 -126 15 -49 0 -93 5 -96
10 -4 6 -54 10 -118 10 -80 0 -120 4 -141 15 -19 10 -58 15 -117 15 -81 0
-109 7 -92 24 3 3 59 6 123 6 92 0 120 -3 130 -15z m-6518 -32 l38 -17 0 -75
c-1 -47 -6 -86 -15 -101 -8 -14 -14 -50 -15 -82 0 -34 -5 -58 -12 -60 -6 -2
-14 -26 -17 -54 -6 -51 -10 -53 -73 -45 -14 2 -8 68 7 81 12 10 15 42 15 171
0 94 -4 160 -10 164 -5 3 -10 13 -10 21 0 19 44 18 92 -3z m6515 -30 c82 -5
137 -13 145 -20 8 -9 44 -13 104 -13 59 0 104 -5 127 -15 22 -9 67 -15 112
-15 42 0 85 -5 95 -10 11 -6 48 -11 82 -11 35 -1 81 -7 103 -15 22 -7 67 -14
101 -14 37 0 68 -6 80 -15 12 -9 43 -14 86 -15 37 0 69 -4 73 -9 3 -5 31 -12
63 -16 31 -3 65 -10 74 -15 10 -6 39 -10 66 -10 27 0 57 -6 68 -15 10 -8 40
-15 65 -15 29 0 51 -6 59 -15 7 -9 29 -15 51 -15 21 0 41 -4 44 -10 3 -5 23
-10 44 -10 22 0 44 -6 51 -15 7 -8 25 -15 40 -15 15 0 33 -7 40 -15 7 -8 25
-15 41 -15 15 0 31 -4 34 -10 3 -5 20 -10 36 -10 17 0 32 -6 35 -15 4 -8 15
-15 25 -15 21 0 25 -15 8 -26 -7 -4 -16 1 -21 10 -6 11 -23 16 -56 16 -27 0
-53 5 -60 12 -6 6 -53 13 -104 15 -59 3 -98 9 -108 18 -8 7 -26 11 -41 8 -16
-3 -30 1 -38 11 -9 11 -30 16 -61 16 -30 0 -52 6 -60 15 -8 10 -30 15 -64 15
-29 0 -57 5 -64 12 -8 8 -36 11 -73 10 -42 -2 -69 2 -85 13 -16 10 -48 15 -97
15 -49 0 -80 5 -93 15 -13 10 -46 14 -110 15 -58 0 -105 5 -127 15 -25 10 -71
15 -146 15 -62 0 -112 4 -116 10 -4 6 -61 10 -139 10 -101 0 -137 3 -152 15
-14 10 -48 14 -125 15 -75 0 -115 4 -135 15 -18 9 -57 15 -106 15 -42 0 -80 5
-83 10 -3 6 -31 10 -61 10 -39 0 -56 4 -60 15 -4 10 -20 15 -47 15 -38 0 -77
21 -77 42 0 10 341 4 557 -9z m-574 -35 c34 -17 70 -35 79 -40 10 -4 35 -8 55
-8 21 0 51 -7 67 -15 18 -9 57 -15 105 -15 51 -1 82 -5 95 -15 15 -11 48 -15
123 -15 65 0 103 -4 103 -11 0 -7 -49 -8 -152 -4 -84 3 -234 8 -333 11 l-180
5 -25 29 c-25 28 -72 60 -120 80 -36 16 -8 30 63 30 44 0 71 -7 120 -32z
m-5823 -73 c0 -32 -6 -51 -21 -66 -28 -28 -36 -15 -31 54 4 52 6 57 28 57 22
0 24 -4 24 -45z m290 31 c0 -8 -12 -37 -26 -65 l-27 -51 -103 0 -104 0 0 65 0
65 130 0 c105 0 130 -3 130 -14z m3012 4 c2 -7 124 -11 346 -12 280 -1 345 -3
349 -14 4 -12 69 -14 354 -14 304 0 349 -2 349 -15 0 -13 45 -15 349 -15 309
0 350 -2 355 -16 5 -14 28 -15 171 -12 159 3 166 2 171 -17 4 -18 -1 -876 -5
-917 -1 -10 -6 -20 -12 -23 -5 -4 -9 -17 -9 -31 0 -23 -3 -24 -72 -26 -178 -4
-250 -7 -353 -17 -133 -13 -507 -13 -625 0 -47 5 -247 12 -445 15 -198 4 -361
10 -363 15 -2 5 -70 9 -150 9 -81 0 -167 5 -191 11 -32 7 -47 6 -58 -3 -12
-10 -17 -9 -24 5 -9 15 -27 17 -131 17 -140 0 -188 12 -188 47 0 13 -7 26 -15
29 -11 4 -15 21 -15 55 0 35 -4 51 -15 55 -11 5 -15 22 -15 69 0 49 -4 64 -16
69 -13 5 -15 15 -11 46 3 28 1 45 -9 54 -8 9 -14 34 -14 61 0 31 -5 47 -15 51
-11 5 -15 22 -15 69 0 47 -4 64 -15 69 -12 4 -15 18 -14 53 2 29 -2 48 -9 51
-7 2 -12 23 -12 52 0 33 -5 50 -15 54 -9 3 -15 19 -15 41 0 22 -6 38 -15 41
-15 6 -22 84 -8 97 11 12 421 8 425 -3z m2671 -111 c26 -5 137 -9 246 -9 147
0 211 -4 247 -15 34 -10 96 -15 207 -15 103 0 166 -4 180 -12 13 -7 73 -12
152 -13 78 -1 139 -6 152 -13 12 -7 65 -12 125 -12 70 -1 111 -5 128 -15 16
-9 56 -15 110 -15 58 0 91 -5 104 -15 13 -10 44 -15 92 -15 40 0 76 -4 79 -10
3 -5 30 -10 58 -10 36 -1 59 -6 75 -20 30 -25 20 -41 -24 -38 -19 1 -39 -3
-46 -10 -7 -7 -24 -12 -38 -12 -14 0 -35 -7 -46 -15 -10 -8 -29 -15 -40 -15
-12 0 -24 -7 -28 -15 -3 -9 -18 -15 -35 -15 -16 0 -33 -4 -36 -10 -3 -5 -17
-10 -31 -10 -14 0 -27 -7 -30 -15 -4 -8 -16 -15 -29 -15 -13 0 -25 7 -29 15
-3 8 -12 15 -21 15 -15 0 -23 3 -83 33 -19 9 -48 17 -66 17 -18 0 -41 7 -52
15 -28 21 -371 22 -400 0 -10 -8 -35 -15 -55 -15 -20 0 -42 -7 -49 -15 -7 -8
-23 -15 -36 -15 -12 0 -26 -4 -29 -10 -3 -5 -17 -10 -29 -10 -13 0 -29 -7 -36
-15 -7 -8 -21 -15 -31 -15 -11 0 -19 -5 -19 -10 0 -6 -10 -14 -21 -19 -38 -13
-225 -194 -242 -233 -9 -21 -21 -38 -27 -38 -5 0 -10 -11 -10 -25 0 -14 -4
-25 -9 -25 -12 0 -41 -58 -41 -82 0 -10 -7 -21 -15 -24 -9 -4 -15 -19 -15 -39
0 -18 -7 -38 -15 -45 -16 -14 -20 -65 -6 -74 14 -9 51 58 51 92 0 17 5 34 10
37 6 3 10 15 10 26 0 11 7 22 15 25 8 4 15 16 15 29 0 12 14 41 30 63 17 23
30 47 30 54 0 16 192 208 208 208 7 0 25 11 40 25 15 14 35 25 45 25 10 0 20
7 23 15 4 8 14 15 24 15 10 0 31 7 46 15 16 8 37 15 46 15 9 0 20 5 23 10 3 6
24 10 46 10 22 0 54 7 71 16 25 13 57 15 164 12 89 -2 137 -7 146 -15 6 -7 31
-13 55 -13 24 0 51 -4 61 -8 9 -5 32 -16 50 -25 19 -9 42 -17 53 -17 21 0 25
-20 7 -38 -15 -15 -84 -16 -93 -2 -3 6 -21 10 -39 10 -18 0 -41 7 -52 15 -28
21 -380 21 -408 0 -11 -8 -34 -15 -52 -15 -18 0 -36 -4 -39 -10 -3 -5 -15 -10
-26 -10 -11 0 -22 -7 -25 -15 -4 -8 -16 -15 -29 -15 -13 0 -25 -7 -29 -15 -3
-8 -13 -15 -21 -15 -9 0 -31 -11 -49 -25 -18 -14 -37 -25 -42 -25 -5 0 -27
-23 -49 -51 -22 -28 -59 -74 -82 -102 -24 -28 -43 -54 -43 -58 0 -4 -7 -15
-16 -23 -8 -9 -17 -26 -19 -38 -3 -13 -9 -24 -15 -26 -5 -2 -10 -13 -10 -25 0
-12 -7 -31 -15 -41 -9 -11 -15 -42 -15 -70 0 -29 -7 -59 -15 -70 -8 -11 -15
-35 -15 -53 l0 -33 -89 0 c-53 0 -102 -6 -122 -14 -23 -9 -85 -15 -187 -18
-149 -3 -153 -3 -146 17 3 11 8 38 11 60 3 22 9 44 14 50 5 5 9 61 9 125 0 64
7 170 15 235 20 158 20 530 1 602 -8 30 -10 55 -5 60 11 11 123 6 192 -8z
m737 1 c-20 -13 -107 -13 -115 0 -4 6 19 10 62 10 48 0 63 -3 53 -10z m1320
-25 c0 -11 12 -15 44 -15 25 0 48 -4 51 -10 3 -5 16 -10 29 -10 12 0 31 -7 42
-15 10 -8 31 -15 45 -15 15 0 29 -7 33 -15 3 -8 17 -15 31 -15 14 0 43 -11 63
-25 20 -14 42 -25 48 -25 7 0 14 -7 18 -15 3 -8 14 -15 24 -15 28 0 34 -11 15
-32 -22 -24 -32 -23 -43 7 -6 15 -17 25 -29 25 -10 0 -21 7 -25 15 -3 8 -14
15 -25 15 -11 0 -23 5 -26 10 -3 6 -15 10 -26 10 -11 0 -22 7 -25 15 -4 8 -18
15 -34 15 -15 0 -33 7 -40 15 -7 8 -25 15 -41 15 -15 0 -31 5 -34 10 -3 6 -24
10 -46 10 -26 0 -42 5 -45 15 -4 11 -21 15 -55 15 -37 0 -49 4 -49 15 0 11 12
15 50 15 38 0 50 -4 50 -15z m-7809 -167 c10 -13 18 -30 19 -39 0 -9 7 -19 15
-23 8 -3 15 -14 15 -24 0 -10 21 -38 48 -64 49 -48 53 -49 194 -71 42 -7 80
-15 84 -19 4 -5 38 -8 76 -8 68 0 108 -11 108 -31 0 -5 -28 -36 -62 -69 -48
-45 -65 -57 -73 -47 -20 24 -67 37 -139 37 -48 0 -79 5 -92 15 -13 10 -46 14
-114 15 -60 0 -100 4 -108 12 -6 6 -51 14 -99 16 -49 2 -92 8 -97 13 -6 5 -49
9 -96 9 -60 0 -92 4 -106 15 -10 8 -34 15 -52 15 -38 0 -41 23 -4 28 20 3 126
111 128 132 1 5 2 15 3 20 0 6 30 10 66 10 37 0 65 4 65 10 0 6 14 10 32 10
17 0 40 7 50 17 10 9 18 12 19 7 0 -5 2 -20 3 -32 2 -13 -3 -30 -11 -37 -7 -8
-13 -22 -13 -33 0 -11 -7 -25 -15 -32 -19 -16 -20 -70 -1 -70 14 0 46 57 46
83 0 9 5 19 10 22 6 3 10 19 10 34 0 16 7 34 15 41 8 7 15 20 15 30 0 37 33
41 61 8z m8179 -48 c0 -5 -4 -10 -10 -10 -5 0 -10 5 -10 10 0 6 5 10 10 10 6
0 10 -4 10 -10z m-8567 -16 c3 -4 -4 -19 -15 -35 l-21 -29 -17 28 c-10 15 -15
30 -13 35 5 8 57 10 66 1z m8247 -43 c0 -31 5 -53 15 -61 8 -7 15 -21 15 -30
0 -10 8 -31 17 -48 9 -16 14 -36 10 -45 -14 -38 -152 14 -181 68 -6 11 -17 24
-23 28 -22 14 -16 88 9 114 18 19 32 23 80 23 l58 0 0 -49z m198 32 c2 -8 -5
-13 -17 -13 -21 0 -35 13 -24 24 10 10 36 3 41 -11z m-388 -52 c0 -33 5 -63
10 -66 6 -3 10 -10 10 -16 0 -17 -31 -9 -58 16 -15 14 -32 25 -39 25 -12 0
-53 35 -53 45 0 3 11 5 24 5 13 0 26 7 30 15 3 8 14 15 25 15 11 0 23 5 26 10
15 25 25 5 25 -49z m294 24 c11 -8 39 -15 62 -15 45 0 54 -10 54 -59 0 -15 5
-32 11 -38 6 -6 9 -28 7 -49 l-3 -39 -42 3 c-32 3 -45 0 -49 -12 -13 -35 -45
-2 -59 60 -6 31 -26 87 -41 117 -8 16 -14 33 -14 38 0 14 53 10 74 -6z m177
-7 c10 -13 19 -30 19 -38 0 -8 7 -24 15 -34 19 -25 19 -100 1 -115 -7 -6 -21
-9 -30 -5 -12 5 -16 20 -16 72 0 54 -4 71 -25 98 -14 18 -25 35 -25 38 0 16
44 3 61 -16z m97 -10 c-3 -34 -20 -42 -26 -13 -5 22 5 45 18 45 7 0 10 -14 8
-32z m-6914 -33 c15 -8 41 -15 56 -15 16 0 41 -6 57 -14 15 -8 39 -19 53 -24
60 -24 74 -32 125 -68 17 -12 36 -23 42 -25 21 -7 213 -202 213 -217 0 -7 18
-31 40 -53 22 -22 40 -46 40 -53 0 -17 42 -54 92 -80 23 -13 44 -35 58 -63 12
-23 25 -45 31 -48 5 -4 9 -11 9 -17 0 -7 -28 -9 -86 -5 -90 5 -104 12 -104 55
0 12 -4 22 -10 22 -5 0 -10 11 -10 24 0 13 -7 26 -15 30 -8 3 -15 17 -15 31 0
14 -4 25 -10 25 -5 0 -10 6 -10 13 0 8 -11 27 -25 43 -14 16 -28 37 -31 47 -7
21 -204 217 -218 217 -6 0 -23 11 -38 25 -15 14 -36 25 -46 25 -11 0 -22 7
-26 15 -3 8 -16 15 -28 15 -13 0 -32 7 -42 15 -11 8 -32 15 -46 15 -14 0 -32
6 -38 12 -17 17 -388 16 -405 -1 -6 -6 -25 -11 -43 -11 -17 0 -37 -7 -44 -15
-7 -8 -22 -15 -33 -15 -11 0 -29 -7 -39 -17 -17 -15 -19 -15 -38 2 -25 22 -25
34 -2 41 27 9 64 24 95 40 16 8 42 14 59 14 16 0 36 7 44 15 22 22 346 22 388
0z m6203 -15 c13 -16 33 -30 43 -30 10 0 23 -6 29 -14 7 -8 27 -22 46 -31 19
-9 35 -20 35 -25 0 -6 9 -10 19 -10 11 0 22 -4 26 -9 7 -12 64 -41 80 -41 7 0
18 -7 25 -15 7 -8 23 -15 35 -15 13 0 25 -7 29 -15 3 -8 17 -15 31 -15 14 0
25 -4 25 -10 0 -6 28 -10 65 -10 37 0 65 4 65 10 0 6 14 10 31 10 17 0 45 6
62 14 18 8 40 16 50 20 14 4 17 18 17 73 0 74 13 112 23 71 4 -12 7 -60 7
-105 0 -81 0 -81 40 -123 22 -23 40 -44 40 -46 0 -2 -67 -4 -148 -4 -82 0
-193 -7 -248 -15 -54 -8 -138 -15 -185 -15 -84 0 -86 0 -100 29 -33 68 -180
241 -204 241 -14 0 -85 59 -85 71 0 5 12 9 28 9 15 0 36 7 46 15 29 22 44 19
73 -15z m-471 -65 c4 -9 20 -15 43 -15 20 0 45 -7 55 -15 11 -8 30 -15 43 -15
13 0 23 -4 23 -10 0 -5 11 -12 25 -16 14 -3 25 -10 25 -15 0 -5 7 -9 15 -9 8
0 15 -4 15 -9 0 -5 10 -13 23 -17 46 -14 184 -167 216 -241 5 -11 15 -24 20
-28 6 -3 11 -14 11 -24 0 -10 7 -24 15 -31 9 -7 14 -19 11 -26 -2 -6 2 -20 9
-31 8 -10 15 -36 15 -58 0 -22 7 -50 15 -62 13 -18 15 -48 13 -150 l-3 -128
-37 -3 c-34 -3 -38 -1 -38 20 0 13 5 29 11 35 15 15 16 230 1 245 -7 7 -12 31
-12 54 0 25 -6 47 -15 54 -8 7 -15 23 -15 37 0 13 -11 39 -24 56 -13 18 -26
44 -29 58 -7 29 -198 219 -220 219 -8 0 -17 7 -21 15 -3 8 -14 15 -25 15 -11
0 -23 5 -26 10 -3 6 -15 10 -26 10 -11 0 -22 7 -25 15 -4 10 -20 15 -49 15
-26 0 -47 6 -55 15 -10 12 -42 15 -170 15 -128 0 -160 -3 -170 -15 -7 -8 -25
-15 -41 -15 -16 0 -47 -11 -69 -25 -22 -14 -44 -25 -49 -25 -5 0 -14 -7 -21
-15 -7 -8 -21 -15 -31 -15 -11 0 -19 -4 -19 -8 0 -4 -25 -24 -55 -43 -32 -20
-62 -48 -72 -69 -10 -18 -28 -43 -40 -55 -27 -25 -103 -171 -103 -199 0 -12
-7 -30 -16 -41 -12 -16 -15 -51 -13 -190 l2 -170 -27 -3 -26 -3 0 155 c0 92 4
157 10 161 6 3 10 21 10 38 0 18 7 45 15 61 8 15 15 37 15 47 0 11 7 22 15 25
8 4 15 17 15 30 0 13 5 24 10 24 6 0 10 8 10 19 0 10 7 25 17 32 9 8 34 39 56
69 41 57 84 100 98 100 5 0 20 10 35 23 30 26 143 87 162 87 6 0 12 5 12 10 0
6 18 10 39 10 25 0 41 5 45 15 4 13 35 15 186 15 151 0 182 -2 186 -15z m321
3 c4 -7 24 -22 43 -32 35 -20 170 -154 170 -170 0 -4 12 -25 28 -45 36 -48 52
-77 52 -96 0 -9 7 -18 15 -21 9 -4 15 -20 15 -43 0 -20 7 -45 15 -55 8 -11 15
-36 15 -56 0 -20 4 -40 9 -45 6 -6 11 -59 13 -120 l3 -110 -25 0 c-25 0 -25 1
-28 89 -2 50 -8 96 -14 103 -6 8 -11 28 -10 46 0 18 -6 42 -14 54 -7 12 -14
34 -14 48 0 14 -7 28 -15 31 -8 4 -15 16 -15 29 0 13 -7 26 -15 29 -9 3 -15
11 -13 18 10 50 -186 252 -289 297 -26 12 -36 28 -29 46 7 19 92 20 103 3z
m-6677 -61 c0 -16 -20 -37 -35 -37 -15 0 -215 -201 -215 -216 0 -7 -11 -25
-25 -40 -14 -15 -25 -32 -25 -39 0 -7 -7 -18 -15 -25 -8 -7 -15 -23 -15 -35 0
-12 -7 -28 -15 -35 -9 -7 -15 -29 -15 -51 0 -22 -4 -39 -10 -39 -5 0 -10 -22
-10 -50 0 -58 -24 -80 -66 -61 -20 9 -23 15 -17 43 3 18 10 35 15 36 4 2 8 18
8 37 0 18 7 38 15 45 8 7 15 25 15 40 0 15 7 33 15 40 8 7 15 21 15 31 0 10 5
21 10 24 6 3 10 15 10 25 0 10 6 23 13 27 6 4 19 21 28 36 8 16 67 80 129 143
105 105 117 114 152 114 25 0 38 -5 38 -13z m-1111 -23 c18 -8 63 -14 100 -14
39 0 78 -6 95 -15 19 -10 58 -15 115 -15 48 0 91 -4 97 -9 5 -5 22 -11 38 -13
46 -5 42 -25 -6 -32 -54 -8 -67 -8 -213 0 -66 3 -126 11 -133 17 -7 5 -52 12
-100 14 -48 3 -91 9 -96 14 -6 5 -31 9 -57 9 -49 0 -62 11 -53 47 5 18 13 19
92 15 48 -2 102 -11 121 -18z m1705 1 c15 -8 41 -15 56 -15 15 0 33 -7 40 -15
7 -8 20 -15 30 -15 10 0 23 -7 30 -15 7 -8 16 -13 20 -10 4 3 29 -15 56 -40
26 -25 51 -45 56 -45 12 0 48 -33 48 -45 0 -6 18 -30 40 -54 22 -23 40 -51 40
-61 0 -10 7 -20 15 -24 9 -3 15 -18 15 -34 0 -16 7 -35 15 -42 8 -7 15 -27 15
-46 0 -18 5 -36 10 -39 6 -4 10 -62 10 -140 0 -78 -4 -136 -10 -140 -5 -3 -10
-19 -10 -34 0 -15 -7 -36 -15 -47 -8 -10 -15 -29 -15 -42 0 -24 -27 -72 -47
-85 -7 -4 -13 -15 -13 -24 0 -20 -139 -163 -158 -163 -8 0 -25 -11 -38 -25
-13 -14 -32 -25 -42 -25 -11 0 -22 -7 -26 -15 -3 -9 -18 -15 -39 -15 -19 0
-40 -6 -46 -14 -6 -7 -22 -11 -36 -8 -14 2 -36 -3 -51 -13 -20 -13 -42 -16
-97 -12 -76 4 -180 23 -209 38 -10 5 -25 9 -34 9 -14 0 -43 13 -90 39 -94 52
-190 145 -225 217 -18 35 -38 69 -45 75 -8 6 -14 24 -14 39 0 16 -7 30 -15 34
-10 3 -15 19 -15 44 0 21 -5 43 -11 49 -6 6 -9 50 -6 119 5 120 18 199 35 216
7 7 12 20 12 29 0 9 7 22 15 29 8 7 15 21 15 31 0 11 5 19 10 19 6 0 10 9 10
20 0 21 172 200 192 200 5 0 24 11 42 25 18 14 39 25 47 25 8 0 23 7 33 15 11
8 31 15 45 15 14 0 35 7 45 15 28 21 269 21 310 0z m5750 0 c15 -8 36 -15 46
-15 10 0 23 -7 30 -15 7 -8 19 -15 27 -15 18 0 66 -26 108 -58 60 -46 175
-167 175 -184 0 -10 7 -21 15 -24 8 -4 15 -14 15 -24 0 -10 7 -23 15 -30 8 -7
15 -23 15 -36 0 -12 5 -26 10 -29 6 -3 10 -30 10 -59 0 -35 5 -58 15 -66 21
-17 20 -147 0 -174 -9 -11 -15 -41 -15 -68 0 -26 -4 -48 -10 -48 -5 0 -10 -18
-10 -39 0 -25 -5 -41 -15 -45 -8 -3 -15 -13 -15 -22 0 -9 -18 -36 -40 -61 -22
-25 -40 -52 -40 -59 0 -12 -71 -74 -85 -74 -4 0 -27 -18 -52 -40 -25 -22 -52
-40 -59 -40 -7 0 -27 -8 -46 -17 -18 -9 -41 -20 -50 -25 -10 -4 -35 -8 -55 -8
-21 -1 -49 -7 -63 -15 -15 -9 -53 -14 -95 -14 -42 0 -80 5 -95 14 -14 8 -42
14 -62 15 -20 0 -40 5 -43 10 -3 6 -20 10 -36 10 -17 0 -32 6 -35 15 -4 8 -14
15 -25 15 -10 0 -30 11 -45 25 -15 14 -32 25 -38 25 -18 0 -166 153 -166 172
0 10 -4 18 -10 18 -5 0 -10 8 -10 19 0 10 -7 24 -15 31 -8 7 -15 20 -15 30 0
10 -7 23 -15 30 -8 7 -15 27 -15 45 0 20 -6 35 -15 39 -22 8 -22 258 0 300 8
15 15 36 15 45 0 10 7 26 15 37 8 10 15 29 15 40 0 12 7 27 15 34 8 7 15 17
15 23 0 5 11 25 25 43 14 18 25 36 25 41 0 14 46 59 85 83 21 13 49 34 63 46
14 13 30 24 37 24 7 0 18 7 25 15 7 8 20 15 30 15 10 0 23 7 30 15 7 8 27 15
44 15 17 0 40 7 50 15 28 21 279 21 320 0z m-6274 -30 c0 -8 -4 -15 -9 -15
-13 0 -22 16 -14 24 11 11 23 6 23 -9z m-40 -25 c0 -6 -7 -13 -16 -17 -27 -10
-154 -143 -154 -161 -1 -9 -14 -28 -30 -42 -17 -13 -30 -30 -30 -37 0 -13 -3
-21 -33 -81 -9 -19 -17 -49 -17 -68 0 -22 -6 -37 -15 -40 -23 -9 -22 -240 1
-266 15 -16 15 -18 1 -23 -8 -4 -32 -5 -53 -3 l-39 3 -3 84 c-2 62 1 89 13
107 8 13 15 39 15 57 0 19 7 40 15 47 8 7 15 25 15 41 0 15 5 31 10 34 6 3 10
14 10 24 0 10 7 24 15 31 8 7 15 21 15 31 0 11 4 19 10 19 5 0 16 15 25 33 9
19 33 52 54 74 21 22 44 49 50 61 6 12 17 22 24 22 7 0 28 18 47 40 33 37 70
52 70 30z m-415 -31 c5 -5 31 -9 57 -9 26 0 48 -4 48 -10 0 -5 -18 -27 -40
-47 -22 -21 -40 -46 -40 -55 0 -9 -4 -20 -10 -23 -5 -3 -10 -15 -10 -26 0 -11
-7 -22 -15 -25 -8 -4 -15 -16 -15 -29 0 -13 -7 -25 -15 -29 -8 -3 -15 -14 -15
-25 0 -10 -7 -32 -15 -47 -8 -16 -15 -36 -15 -45 0 -8 -4 -19 -9 -25 -6 -5
-11 -29 -13 -54 -3 -40 -6 -45 -28 -46 -14 0 -35 5 -47 13 -12 7 -35 13 -52
13 -16 0 -31 6 -35 15 -3 9 -18 15 -35 15 -16 0 -32 4 -35 9 -6 10 -97 41
-119 41 -8 0 -20 7 -27 15 -7 8 -27 15 -44 15 -17 0 -40 7 -50 15 -11 8 -32
15 -47 15 -15 0 -31 5 -34 10 -3 6 -23 10 -44 10 -21 0 -44 6 -51 14 -6 8 -26
16 -43 18 -31 3 -32 5 -35 51 -2 26 -7 47 -13 47 -5 0 -9 13 -9 29 0 32 -22
61 -46 61 -10 0 -14 13 -14 50 0 38 4 50 15 50 8 0 15 -4 15 -10 0 -6 33 -10
78 -10 49 0 87 -6 106 -15 18 -10 57 -15 106 -15 46 0 92 -6 113 -15 23 -9 68
-15 120 -15 63 0 88 4 97 15 7 8 19 15 26 15 7 0 23 13 34 28 21 28 22 28 108
24 48 -2 91 -8 97 -13z m1299 -4 c9 -13 16 -27 16 -30 0 -12 -49 30 -50 43 0
20 17 14 34 -13z m56 -50 c7 -8 18 -15 26 -15 7 0 15 -8 18 -18 4 -10 22 -36
41 -58 19 -21 35 -47 35 -56 0 -9 6 -21 13 -25 17 -11 67 -110 67 -134 0 -11
7 -22 15 -25 9 -4 15 -19 15 -41 0 -19 7 -41 15 -50 13 -12 15 -38 13 -137
l-3 -121 -39 0 -39 0 2 161 c2 135 0 164 -13 177 -9 9 -16 31 -16 50 0 22 -6
37 -15 41 -8 3 -15 14 -15 24 0 24 -29 82 -41 82 -5 0 -9 9 -9 20 0 10 -15 34
-32 53 -39 39 -68 75 -68 82 0 10 18 4 30 -10z m6758 -76 c-2 -6 -8 -10 -13
-10 -5 0 -11 4 -13 10 -2 6 4 11 13 11 9 0 15 -5 13 -11z m-648 -38 c0 -24 75
-92 94 -85 8 3 28 -2 45 -10 25 -13 70 -16 256 -16 221 0 225 0 225 21 0 36
25 15 28 -24 6 -64 -9 -77 -86 -77 -57 -1 -73 -5 -107 -28 l-40 -28 -3 -91 -3
-92 -47 -11 c-26 -7 -108 -14 -184 -17 -126 -5 -137 -4 -146 13 -14 28 -32
142 -32 207 0 31 -4 59 -10 62 -5 3 -10 24 -10 46 0 26 -5 42 -15 45 -8 4 -15
16 -15 28 0 12 -7 31 -15 42 -22 29 -18 34 25 34 33 0 40 -4 40 -19z m600 2
c11 -10 20 -28 20 -40 l0 -23 -263 0 c-251 0 -263 1 -280 20 -9 11 -17 25 -17
30 0 6 88 10 238 10 136 0 243 4 252 10 21 13 27 13 50 -7z m-8756 -184 c6 -5
22 -9 36 -9 14 0 35 -7 46 -15 10 -8 29 -15 41 -15 20 0 68 -17 115 -41 10 -5
28 -9 42 -9 13 0 29 -7 36 -15 7 -8 25 -15 40 -15 15 0 33 -7 40 -15 7 -8 23
-15 36 -15 14 0 32 -4 42 -9 9 -5 31 -13 47 -18 28 -8 30 -12 35 -66 3 -32 8
-57 13 -57 4 0 12 0 17 0 6 0 10 9 10 20 0 10 5 30 11 44 10 21 15 23 35 14
21 -10 24 -18 24 -70 0 -65 -17 -83 -49 -54 -13 12 -38 16 -94 16 -42 0 -79 5
-82 10 -3 6 -41 10 -83 10 -76 0 -124 13 -92 24 8 3 49 7 90 8 42 2 75 7 75
13 0 6 -104 11 -287 13 -273 2 -288 3 -288 21 0 10 7 24 15 31 8 7 15 21 15
31 0 17 9 19 99 19 56 0 103 -4 106 -10 3 -5 23 -10 44 -10 20 0 46 -7 57 -15
28 -21 76 -20 72 2 -4 23 -45 43 -90 43 -20 0 -40 5 -43 10 -4 6 -55 10 -120
10 -62 0 -120 3 -129 6 -20 8 -23 103 -4 122 13 13 106 6 122 -9z m2881 1 c4
-6 62 -10 141 -10 97 0 145 -4 171 -15 19 -8 44 -15 54 -15 15 0 19 -7 19 -33
0 -24 8 -40 30 -59 16 -14 26 -28 23 -32 -10 -10 -83 -7 -104 4 -17 10 -88 16
-454 39 -135 8 -200 26 -212 58 -4 9 -15 25 -25 35 -10 10 -18 23 -18 28 0 6
68 10 184 10 113 0 187 -4 191 -10z m663 -52 c9 -9 69 -14 210 -16 108 -1 206
-7 217 -12 11 -5 128 -11 260 -13 134 -3 255 -10 275 -16 48 -15 1203 -15
1231 0 11 5 46 11 77 12 52 2 57 0 60 -21 2 -13 -3 -25 -12 -28 -10 -4 -16
-18 -16 -39 0 -31 -3 -34 -42 -41 -24 -4 -405 -7 -848 -6 -683 0 -820 3 -902
16 -62 10 -161 16 -267 16 -124 0 -180 4 -211 15 -25 9 -78 15 -129 15 -86 0
-87 0 -119 34 -30 32 -41 73 -25 89 12 13 228 8 241 -5z m-995 -83 c25 -10 71
-15 141 -15 59 0 108 -4 111 -10 4 -6 58 -10 128 -10 80 -1 136 -6 162 -15 28
-10 84 -15 183 -15 96 0 151 -4 165 -12 22 -13 72 -16 707 -37 162 -5 313 -14
335 -20 55 -14 1006 -14 1060 0 22 6 137 15 255 20 378 16 484 24 507 37 12 6
47 12 78 12 l56 0 -3 -147 -3 -147 -55 1 c-30 1 -58 2 -62 2 -4 1 -8 11 -10
24 -2 15 -11 23 -28 26 -14 1 -28 8 -32 15 -8 13 -263 21 -1133 35 -319 5
-645 14 -725 20 -189 14 -841 14 -1006 0 -71 -6 -280 -15 -464 -20 -436 -11
-455 -13 -502 -51 -21 -16 -42 -27 -48 -23 -6 4 -10 64 -10 153 0 81 -4 154
-9 162 -6 8 -7 18 -5 22 9 14 169 9 207 -7z m6142 6 c3 -5 1 -12 -5 -16 -5 -3
-10 1 -10 9 0 18 6 21 15 7z m-47 -178 c15 -4 22 -13 22 -30 0 -21 -4 -24 -23
-19 -16 4 -28 -1 -40 -14 -16 -19 -30 -20 -201 -20 -200 0 -216 4 -216 56 l0
24 183 0 c104 0 188 5 197 10 8 6 24 8 35 4 11 -3 30 -8 43 -11z m-508 -33 c3
-14 12 -35 20 -47 14 -22 19 -23 205 -24 180 0 251 -8 215 -23 -9 -4 -123 -5
-255 -4 l-240 3 -3 63 -3 63 28 -3 c21 -2 29 -10 33 -28z m-7886 4 c29 -11 5
-24 -45 -24 -46 0 -59 7 -42 23 8 9 66 9 87 1z m5143 -81 c45 -3 80 -10 77
-14 -6 -11 -2685 -12 -2711 -2 -14 6 -8 9 22 14 54 8 2508 11 2612 2z"/>
<path d="M1444 4217 c-8 -4 -14 -12 -14 -17 0 -6 167 -10 435 -10 292 0 435 3
435 10 0 6 -6 13 -12 15 -23 8 -829 10 -844 2z"/>
<path d="M4020 3905 c-7 -8 -19 -15 -27 -15 -22 0 -55 -36 -51 -57 2 -14 14
-19 53 -21 27 -2 53 -9 57 -16 8 -15 178 -13 187 3 4 5 29 11 56 13 50 3 50 3
50 38 0 32 -3 35 -32 38 -17 2 -37 10 -43 18 -18 21 -232 20 -250 -1z m298
-52 c3 -10 -36 -13 -172 -13 -151 0 -176 2 -176 15 0 13 23 15 172 13 126 -2
172 -6 176 -15z"/>
<path d="M6877 3783 c-15 -14 -6 -53 15 -67 26 -18 180 -22 222 -6 36 13 36
57 0 70 -28 11 -227 14 -237 3z m198 -38 c0 -11 -119 -20 -142 -11 -8 3 -11
11 -8 16 8 14 150 9 150 -5z"/>
<path d="M2198 3210 c-2 -6 -17 -13 -33 -16 -17 -3 -34 -9 -39 -15 -6 -5 -18
-9 -28 -9 -22 0 -198 -171 -198 -193 0 -9 -4 -18 -9 -22 -18 -10 -41 -68 -41
-100 0 -18 -7 -38 -15 -45 -21 -18 -21 -198 0 -226 8 -10 15 -28 15 -40 0 -26
47 -116 66 -127 8 -4 14 -13 14 -20 0 -14 86 -107 115 -124 35 -21 79 -41 103
-48 12 -3 22 -11 22 -16 0 -5 17 -9 38 -9 20 0 46 -7 56 -15 13 -10 44 -15 91
-15 47 0 78 5 91 15 10 8 33 15 50 15 17 0 37 7 44 15 7 8 23 15 36 15 13 0
24 4 24 9 0 5 9 13 21 16 32 10 169 145 169 166 0 11 4 19 8 19 9 0 42 69 42
87 0 6 7 16 15 23 22 18 21 276 0 304 -8 11 -15 30 -15 42 0 12 -7 27 -15 34
-8 7 -15 17 -15 22 0 23 -107 157 -132 167 -15 5 -35 19 -45 30 -9 12 -24 21
-33 21 -8 0 -24 7 -34 15 -11 8 -30 15 -42 15 -13 0 -26 5 -29 10 -8 14 -292
13 -297 0z m162 -114 c0 -52 4 -97 9 -100 15 -10 25 -106 12 -119 -8 -8 -15
-6 -25 8 -13 18 -14 18 -23 0 -11 -19 -33 -13 -33 9 0 8 7 19 15 26 12 10 15
39 15 141 0 108 2 129 15 129 12 0 15 -17 15 -94z m-140 45 c0 -21 -9 -36 -34
-55 -19 -14 -41 -26 -49 -26 -8 0 -17 -7 -21 -15 -3 -8 -12 -15 -20 -15 -8 0
-27 -15 -43 -33 -39 -45 -49 -50 -73 -37 -34 18 -29 29 47 111 25 27 83 69 94
69 8 0 23 7 33 15 11 8 30 15 43 15 19 0 23 -5 23 -29z m80 -67 c0 -61 -4 -93
-10 -89 -5 3 -10 31 -10 62 0 38 -5 62 -16 74 -20 22 -12 49 16 49 19 0 20 -6
20 -96z m135 38 c0 -62 -15 -66 -32 -8 -15 48 -10 69 14 64 15 -3 18 -14 18
-56z m111 43 c4 -8 14 -15 24 -15 11 0 22 -4 25 -10 3 -5 21 -17 40 -26 45
-21 117 -106 109 -128 -13 -33 -45 -30 -88 11 -44 42 -135 103 -154 103 -7 0
-12 9 -12 19 0 11 -4 23 -10 26 -5 3 -10 13 -10 21 0 20 69 19 76 -1z m-296
-184 c0 -72 -3 -90 -16 -95 -28 -11 -80 -6 -100 9 -10 8 -28 15 -40 15 -11 0
-29 9 -38 19 -17 19 -17 21 16 50 18 17 38 31 44 31 6 0 17 7 24 15 7 8 21 15
32 15 10 0 21 7 24 15 4 8 17 15 30 15 24 0 24 -2 24 -89z m284 64 c18 -14 37
-25 42 -25 5 0 24 -16 42 -34 41 -41 40 -70 -3 -74 -16 -2 -38 -10 -49 -18
-11 -8 -37 -14 -58 -14 l-38 0 0 95 c0 107 6 114 64 70z m-554 -120 c7 -8 21
-15 32 -15 10 0 21 -7 24 -15 4 -9 19 -15 40 -15 40 0 45 -15 8 -24 -17 -5
-32 -2 -43 9 -10 8 -29 15 -44 15 -27 0 -82 42 -70 53 11 12 40 7 53 -8z m806
0 c4 -13 -60 -45 -91 -45 -36 0 -31 15 13 39 38 21 73 24 78 6z m-856 -55 c0
-5 13 -10 29 -10 16 0 36 -7 45 -15 8 -9 33 -15 58 -15 24 0 53 -7 64 -15 10
-8 30 -15 42 -15 15 0 22 -4 18 -12 -3 -7 -9 -21 -12 -30 -8 -23 -23 -23 -54
-1 -14 10 -32 19 -40 20 -8 1 -16 7 -18 12 -2 6 -14 11 -26 11 -12 0 -31 7
-42 15 -10 8 -29 15 -42 15 -25 0 -72 27 -72 41 0 5 11 9 25 9 14 0 25 -4 25
-10z m730 1 c0 -13 -34 -23 -54 -15 -9 3 -13 10 -10 15 7 12 64 12 64 0z m150
-2 c0 -18 -32 -38 -61 -39 -15 0 -32 -7 -39 -15 -7 -8 -21 -15 -31 -15 -28 0
-127 -49 -133 -66 -10 -25 -26 -5 -26 32 0 22 5 34 14 34 7 0 19 7 26 15 8 9
30 15 60 15 26 0 61 7 76 15 16 8 41 15 57 15 15 0 27 5 27 10 0 6 7 10 15 10
8 0 15 -5 15 -11z m-450 -30 c0 -5 -7 -9 -15 -9 -15 0 -20 12 -9 23 8 8 24 -1
24 -14z m-59 -62 c-8 -8 -18 -5 -34 11 l-22 23 25 19 25 19 8 -31 c5 -19 4
-35 -2 -41z m159 43 c0 -14 -33 -50 -46 -50 -18 0 -35 26 -28 44 7 18 74 23
74 6z m-518 -20 c13 0 29 -5 35 -11 6 -6 19 -12 29 -13 10 -2 20 -9 22 -16 3
-9 -4 -11 -29 -7 -113 20 -132 28 -122 53 4 10 10 11 23 4 10 -6 29 -10 42
-10z m868 -16 c0 -9 -10 -14 -29 -14 -17 0 -33 -4 -36 -10 -3 -5 -24 -10 -46
-10 -21 0 -39 5 -39 10 0 6 7 10 16 10 9 0 30 6 47 14 59 27 87 27 87 0z
m-560 -25 c0 -5 -9 -9 -20 -9 -22 0 -27 16 -7 23 15 5 27 -1 27 -14z m240 1
c0 -5 -4 -10 -10 -10 -5 0 -10 5 -10 10 0 6 5 10 10 10 6 0 10 -4 10 -10z
m-140 -25 c0 -16 -35 -21 -44 -6 -8 12 4 21 26 21 10 0 18 -7 18 -15z m-475
-5 c3 -5 17 -10 31 -10 20 0 24 -5 24 -29 0 -17 5 -33 10 -36 6 -3 10 -24 10
-46 0 -26 5 -42 15 -45 8 -4 15 -16 15 -29 0 -13 7 -25 15 -29 21 -8 18 -36
-6 -66 l-21 -25 -34 40 c-19 22 -34 50 -34 62 0 12 -4 25 -10 28 -5 3 -10 22
-10 41 0 19 -7 51 -15 71 -8 19 -15 46 -15 59 0 24 14 32 25 14z m215 6 c0
-11 -19 -15 -25 -6 -3 5 1 10 9 10 9 0 16 -2 16 -4z m750 -54 c0 -33 -5 -63
-12 -70 -7 -7 -13 -27 -14 -44 -1 -18 -7 -34 -13 -36 -6 -2 -11 -12 -11 -22 0
-9 -6 -23 -14 -30 -8 -6 -16 -21 -18 -33 -2 -14 -10 -22 -23 -22 -17 0 -20 8
-23 48 -2 33 2 52 12 63 9 8 16 29 16 45 0 16 4 29 9 29 6 0 11 21 13 47 3 40
7 49 33 64 17 10 33 18 38 18 4 1 7 -25 7 -57z m-814 23 c10 -8 32 -15 48 -15
40 0 66 -26 66 -64 0 -23 -12 -43 -46 -78 -25 -27 -49 -48 -54 -48 -12 0 -30
34 -30 58 0 11 -7 25 -15 32 -10 8 -15 31 -15 71 0 63 9 72 46 44z m356 0 c0
-5 -5 -11 -11 -13 -6 -2 -11 4 -11 13 0 9 5 15 11 13 6 -2 11 -8 11 -13z m104
-34 c-9 -13 -46 -14 -65 -2 -12 8 -11 13 10 30 23 19 25 19 43 1 10 -10 15
-23 12 -29z m240 12 c-4 -21 -9 -55 -12 -75 -3 -21 -12 -42 -20 -49 -8 -6 -14
-19 -14 -29 0 -34 -32 -33 -65 2 -59 62 -84 138 -46 138 11 0 23 5 26 10 3 6
21 10 39 10 19 0 39 7 46 15 7 8 21 15 32 15 18 0 19 -5 14 -37z m-446 6 c0
-15 -40 -50 -50 -44 -17 10 -11 33 12 49 21 15 38 13 38 -5z m100 -79 c0 -23
-4 -30 -20 -30 -11 0 -23 7 -26 15 -9 23 3 45 26 45 16 0 20 -7 20 -30z m60
-1 c0 -10 -7 -19 -15 -19 -15 0 -21 31 -9 43 11 10 24 -3 24 -24z m-160 1 c0
-11 -7 -20 -15 -20 -8 0 -15 9 -15 20 0 11 7 20 15 20 8 0 15 -9 15 -20z m218
-44 c7 -18 21 -44 32 -56 11 -13 20 -29 20 -37 0 -8 11 -26 25 -41 14 -15 25
-33 25 -40 0 -8 11 -23 25 -34 14 -11 25 -24 25 -29 0 -5 -11 -9 -25 -9 -18 0
-25 5 -25 20 0 11 -24 43 -54 72 -29 29 -61 66 -71 81 -10 16 -29 33 -42 38
-28 10 -22 29 9 29 11 0 22 8 25 20 8 29 17 25 31 -14z m-273 13 c4 -5 18 -15
32 -20 24 -9 24 -11 -56 -90 -45 -44 -81 -86 -81 -92 -1 -21 -38 -57 -59 -57
-30 0 -26 11 19 55 22 21 40 44 40 51 0 6 11 23 25 38 14 15 25 35 25 45 0 11
7 21 15 25 8 3 15 17 15 31 0 26 14 33 25 14z m-85 -54 c0 -22 -105 -155 -122
-155 -23 0 -1 44 49 99 51 55 73 71 73 56z m248 -34 c12 -11 22 -25 22 -33 0
-7 14 -28 30 -47 17 -19 29 -39 27 -45 -6 -17 -94 -27 -169 -20 -64 6 -81 15
-58 29 6 3 10 13 10 22 0 9 12 29 28 44 15 16 35 38 45 49 21 25 36 25 65 1z
m294 -85 c7 -12 7 -21 -1 -29 -12 -12 -81 52 -81 76 0 8 -7 20 -15 27 -8 7
-12 16 -9 21 6 10 89 -65 106 -95z m-437 34 c3 -5 1 -10 -4 -10 -6 0 -11 5
-11 10 0 6 2 10 4 10 3 0 8 -4 11 -10z m249 -15 c4 -14 11 -25 16 -25 6 0 10
-6 10 -14 0 -8 6 -16 14 -19 7 -3 23 -19 35 -36 19 -26 20 -32 7 -37 -17 -7
-56 29 -56 51 0 9 -11 26 -25 39 -14 13 -25 33 -25 45 0 29 16 27 24 -4z
m-282 -23 c-7 -2 -12 -14 -12 -27 0 -12 -7 -25 -15 -29 -8 -3 -15 -14 -15 -25
0 -17 -18 -31 -41 -31 -5 0 -9 9 -9 19 0 25 93 128 99 110 2 -7 -1 -15 -7 -17z
m78 -97 c28 -16 96 -20 104 -6 3 4 20 11 38 15 24 5 37 1 55 -16 45 -42 32
-55 -60 -60 -46 -3 -116 -3 -155 0 -62 4 -72 7 -72 23 0 24 30 59 50 59 8 -1
26 -7 40 -15z"/>
<path d="M7920 3204 c-14 -7 -33 -14 -42 -14 -10 0 -18 -4 -18 -10 0 -5 -8
-10 -18 -10 -10 0 -29 -12 -43 -26 -13 -14 -38 -34 -56 -45 -33 -21 -143 -175
-143 -201 0 -8 -7 -23 -15 -34 -21 -28 -22 -309 0 -318 9 -3 15 -18 15 -34 0
-17 10 -40 25 -56 14 -15 25 -33 25 -41 0 -21 149 -165 171 -165 10 0 19 -4
19 -10 0 -5 8 -10 18 -10 10 0 27 -7 38 -15 10 -8 35 -15 55 -15 20 0 42 -7
49 -15 17 -21 148 -21 176 0 10 8 30 15 43 15 26 0 147 55 156 71 4 5 14 9 24
9 19 0 61 39 61 57 0 6 11 18 25 27 14 9 25 21 25 27 0 6 11 25 25 43 14 18
25 38 25 43 0 6 7 16 15 23 8 7 15 27 15 44 0 17 7 40 15 50 21 27 20 183 0
210 -8 11 -15 34 -15 52 0 17 -7 37 -15 44 -8 7 -15 21 -15 31 0 11 -4 19 -10
19 -5 0 -10 9 -10 21 0 24 -128 156 -180 185 -19 10 -38 23 -42 28 -3 6 -21
11 -39 12 -19 1 -35 7 -37 13 -6 17 -290 13 -322 -5z m190 -139 c0 -93 4 -131
15 -148 9 -15 11 -27 5 -37 -8 -13 -11 -12 -24 5 -13 16 -17 17 -25 6 -5 -7
-14 -10 -20 -7 -16 10 -14 79 4 102 10 13 14 46 15 112 0 75 3 92 15 92 13 0
15 -21 15 -125z m61 104 c19 -10 19 -12 5 -34 -10 -15 -16 -47 -16 -84 0 -59
-13 -89 -24 -54 -7 24 -7 143 0 166 6 20 9 20 35 6z m-201 -7 c0 -25 -34 -72
-51 -72 -11 0 -22 -7 -25 -15 -4 -8 -12 -15 -20 -15 -8 0 -14 -4 -14 -10 0 -5
-7 -10 -15 -10 -9 0 -34 -20 -57 -45 -23 -25 -50 -45 -60 -45 -24 0 -42 35
-29 58 17 29 99 102 116 102 9 0 18 7 21 15 4 8 16 15 29 15 13 0 25 7 29 15
6 16 76 22 76 7z m60 -47 c0 -50 -8 -77 -21 -69 -10 6 -12 107 -3 117 14 14
24 -6 24 -48z m282 28 c57 -31 168 -135 168 -158 0 -18 -36 -38 -53 -29 -6 4
-21 16 -32 26 -66 61 -87 78 -98 78 -12 0 -87 64 -87 74 0 18 15 36 31 36 11
0 42 -12 71 -27z m-335 -145 c7 -41 7 -72 0 -95 -10 -31 -13 -33 -52 -33 -26
0 -48 6 -55 15 -7 8 -27 15 -45 15 -49 0 -52 30 -6 73 20 19 51 42 69 51 17 9
32 21 32 26 0 6 11 10 24 10 21 0 24 -6 33 -62z m267 47 c3 -8 12 -15 21 -15
15 0 125 -75 125 -86 0 -22 -25 -44 -49 -44 -16 0 -34 -7 -41 -15 -7 -8 -27
-15 -45 -15 -48 0 -65 32 -65 120 0 67 1 70 24 70 13 0 26 -7 30 -15z m-530
-130 c15 -8 36 -15 46 -15 10 0 20 -7 24 -15 3 -8 16 -15 30 -15 33 0 42 -16
14 -23 -13 -4 -29 0 -38 8 -9 8 -31 15 -49 15 -26 0 -50 10 -90 36 -7 5 11 24
22 24 7 0 25 -7 41 -15z m792 3 c11 -17 -33 -48 -69 -48 -16 0 -35 -7 -41 -16
-8 -11 -20 -13 -39 -9 -34 9 -25 25 13 25 15 0 30 7 34 15 3 8 14 15 24 15 11
0 25 7 32 15 15 18 36 19 46 3z m-852 -57 c3 -4 27 -11 53 -14 26 -3 49 -10
51 -16 2 -6 24 -11 49 -11 63 0 113 -31 113 -71 0 -34 -19 -38 -44 -10 -10 11
-31 23 -47 26 -16 4 -31 11 -34 16 -4 5 -17 9 -29 9 -13 0 -29 7 -36 15 -7 8
-26 15 -43 15 -29 0 -67 24 -67 42 0 11 27 10 34 -1z m906 0 c0 -12 -57 -41
-80 -41 -10 0 -23 -7 -30 -15 -7 -8 -25 -15 -40 -15 -15 0 -33 -7 -40 -15 -7
-8 -16 -13 -20 -10 -4 2 -20 -7 -36 -20 -35 -30 -44 -31 -44 -5 0 10 -8 23
-17 29 -16 8 -14 11 12 20 17 6 38 16 47 21 10 6 37 10 61 10 24 0 48 5 54 11
6 6 26 13 44 16 19 2 36 9 37 14 5 12 52 12 52 0z m-455 -20 c7 -12 -12 -24
-25 -16 -11 7 -4 25 10 25 5 0 11 -4 15 -9z m70 -21 c18 -20 18 -21 -2 -42
-27 -26 -43 -16 -43 28 0 39 17 45 45 14z m-127 -27 c-4 -34 -32 -42 -48 -13
-14 26 -5 40 26 40 22 0 25 -4 22 -27z m-350 -15 c2 -4 21 -11 43 -14 53 -9
50 -27 -3 -21 -99 13 -127 24 -113 47 7 11 68 1 73 -12z m860 5 c-2 -10 -14
-19 -28 -21 -14 -2 -29 -8 -34 -13 -13 -12 -96 -12 -96 1 0 6 3 10 8 11 23 2
49 9 67 18 20 10 48 18 73 20 8 0 12 -7 10 -16z m-578 -34 c0 -5 -7 -9 -15 -9
-15 0 -20 12 -9 23 8 8 24 -1 24 -14z m258 4 c2 -8 -6 -13 -22 -13 -25 0 -33
10 -19 24 10 10 36 3 41 -11z m-615 -27 c3 -8 16 -16 29 -18 20 -3 23 -9 26
-53 2 -27 7 -54 13 -59 5 -6 9 -23 9 -38 0 -16 7 -31 15 -34 11 -4 15 -21 15
-55 0 -27 -2 -49 -4 -49 -2 0 -11 -3 -19 -6 -15 -5 -57 54 -57 80 0 8 -7 19
-15 26 -8 7 -15 25 -15 41 0 15 -4 31 -10 34 -12 8 -13 145 -1 145 5 0 11 -6
14 -14z m457 0 c0 -8 6 -16 13 -19 6 -2 9 -7 5 -11 -8 -10 -49 25 -42 36 8 13
24 9 24 -6z m510 -30 c0 -13 -7 -29 -15 -36 -10 -8 -15 -30 -15 -61 0 -26 -4
-50 -9 -53 -5 -3 -12 -18 -16 -33 -3 -14 -20 -46 -37 -70 l-31 -43 -19 42
c-17 37 -17 43 -3 50 8 5 15 20 15 33 0 14 5 25 10 25 6 0 10 15 10 33 1 17 7
43 15 57 8 14 14 35 15 48 0 17 6 22 24 22 14 0 28 5 31 10 10 16 25 1 25 -24z
m-816 -1 c11 -8 30 -15 43 -15 55 0 92 -52 58 -80 -8 -7 -15 -19 -15 -28 0 -8
-16 -30 -35 -48 -37 -34 -65 -36 -65 -4 0 10 -7 23 -15 30 -8 7 -15 26 -15 42
0 16 -7 43 -16 59 -8 17 -13 37 -10 45 7 18 46 17 70 -1z m456 -26 c0 -3 -6
-13 -13 -24 -13 -17 -15 -17 -35 3 -22 22 -28 43 -16 54 6 7 64 -23 64 -33z
m226 -19 c0 -54 -31 -140 -57 -156 -16 -10 -108 97 -109 126 0 32 32 60 69 60
16 0 34 7 41 15 7 9 23 15 34 13 18 -3 21 -10 22 -58z m-436 19 c0 -9 -27 -19
-51 -19 -23 0 -25 26 -2 38 16 10 53 -4 53 -19z m5 -64 c0 -10 -6 -20 -12 -22
-8 -3 -13 5 -13 22 0 17 5 25 13 23 6 -3 12 -13 12 -23z m83 2 c3 -17 -22 -46
-40 -47 -11 0 -21 47 -13 60 11 17 49 7 53 -13z m82 -8 c0 -10 -7 -19 -15 -19
-15 0 -21 31 -9 43 11 10 24 -3 24 -24z m-218 -21 c2 -15 11 -24 26 -26 12 -2
22 -6 22 -10 0 -3 -19 -24 -42 -47 -66 -62 -136 -144 -143 -166 -4 -10 -14
-19 -24 -19 -31 0 -31 12 -1 38 17 15 30 34 30 42 0 9 11 27 25 40 14 13 25
32 25 42 0 10 7 21 15 24 8 4 15 11 15 17 0 16 34 86 42 87 4 0 8 -10 10 -22z
m268 -17 c0 -16 7 -34 15 -41 8 -7 15 -21 15 -31 0 -11 4 -19 8 -19 4 0 16
-15 26 -32 11 -18 34 -50 53 -71 36 -40 41 -57 18 -57 -19 0 -55 31 -55 47 0
8 -36 51 -80 97 -44 46 -80 86 -80 90 0 3 11 6 24 6 16 0 27 7 31 20 9 30 25
24 25 -9z m131 -103 c57 -62 68 -81 50 -92 -13 -9 -41 4 -41 18 0 7 -13 26
-30 42 -16 16 -30 35 -30 43 0 8 -7 23 -17 33 -11 12 -12 18 -4 18 7 0 39 -28
72 -62z m-518 13 c-6 -3 -13 -15 -17 -26 -7 -22 -58 -85 -69 -85 -4 0 -7 10
-7 22 0 25 93 125 99 107 2 -6 -1 -14 -6 -18z m284 -18 c44 -48 76 -100 69
-112 -4 -6 -74 -7 -183 -3 -45 2 -53 5 -53 22 0 10 6 23 13 27 6 4 21 23 31
42 27 48 48 71 65 71 8 0 34 -21 58 -47z m-167 -32 c0 -10 -11 -30 -25 -45
-14 -15 -25 -32 -25 -39 -1 -22 -39 -59 -55 -53 -19 7 -10 26 35 75 17 19 36
45 41 58 10 28 29 31 29 4z m330 -87 c26 -42 25 -54 -5 -54 -20 0 -25 5 -25
24 0 13 -7 26 -15 30 -8 3 -15 16 -15 30 0 13 -7 27 -16 30 -8 3 -12 10 -9 16
8 13 58 -32 85 -76z m-257 -39 c45 -19 86 -19 111 0 11 8 26 15 35 15 23 0 51
-31 51 -57 0 -22 -4 -23 -60 -23 -33 0 -69 -6 -80 -12 -16 -10 -24 -10 -40 0
-11 6 -45 12 -75 12 -66 0 -80 18 -45 56 27 28 53 30 103 9z"/>
<path d="M9183 2864 c-18 -19 -33 -43 -33 -54 0 -11 -5 -29 -12 -40 -9 -14 -9
-24 -1 -42 7 -13 13 -32 15 -43 3 -16 12 -21 51 -23 42 -3 51 1 82 31 19 19
35 41 35 50 0 9 5 27 11 41 10 20 7 32 -12 68 -22 39 -28 43 -64 45 -34 1 -45
-4 -72 -33z m105 -61 c2 -52 0 -63 -13 -63 -11 0 -15 11 -15 49 0 35 -4 51
-16 55 -22 8 -6 28 19 24 20 -3 22 -10 25 -65z m-58 -27 c0 -44 -19 -74 -40
-61 -11 7 -14 88 -3 98 3 4 15 7 25 7 15 0 18 -8 18 -44z"/>
</g>
</svg>
